<?xml version="1.0" standalone="no"?>
<!DOCTYPE svg PUBLIC "-//W3C//DTD SVG 20010904//EN"
 "http://www.w3.org/TR/2001/REC-SVG-20010904/DTD/svg10.dtd">
<svg version="1.0" xmlns="http://www.w3.org/2000/svg"
 width="293.000000pt" height="293.000000pt" viewBox="0 0 293.000000 293.000000"
 preserveAspectRatio="xMidYMid meet">

<g transform="translate(0.000000,293.000000) scale(0.100000,-0.100000)"
fill="#ffffff" stroke="none">
<path d="M391 2708 c-12 -90 -32 -243 -45 -340 l-23 -178 198 0 c196 0 197 0
203 23 10 42 65 116 116 156 57 45 168 85 268 97 l62 7 0 -729 c0 -787 0 -786
54 -878 58 -99 218 -212 396 -281 123 -47 294 -105 298 -100 2 2 -11 36 -28
76 -70 158 -70 159 -70 1086 l0 833 48 -7 c217 -28 362 -116 393 -239 l11 -44
199 0 c133 0 199 4 199 11 0 5 -18 126 -40 267 -22 141 -45 290 -51 330 l-11
72 -1078 0 -1077 0 -22 -162z"/>
<path d="M2201 1309 c-13 -5 -37 -20 -53 -34 -21 -18 -41 -25 -71 -25 -23 0
-66 -10 -94 -22 l-53 -23 1 -190 c0 -121 5 -213 13 -253 15 -68 26 -90 26 -50
0 47 88 146 157 175 45 18 84 16 172 -8 111 -31 192 -25 257 22 57 40 88 92
73 121 -5 10 -31 29 -57 42 -59 30 -97 68 -121 120 -43 98 -165 159 -250 125z"/>
<path d="M994 1033 c-27 -12 -95 -29 -151 -37 -76 -10 -122 -24 -193 -55 -112
-51 -201 -75 -251 -68 -38 5 -118 40 -177 78 -42 27 -51 18 -27 -27 50 -93
128 -134 257 -134 71 0 138 20 138 41 0 7 3 10 6 7 3 -4 -2 -28 -12 -55 -11
-32 -18 -82 -18 -150 -2 -115 -12 -138 -79 -182 -40 -27 -54 -69 -64 -196 -6
-81 10 -130 53 -164 54 -43 77 -15 51 59 -17 49 -14 78 16 136 21 40 49 63
145 120 83 48 134 96 219 206 23 30 58 63 77 73 33 18 35 18 102 -3 38 -11 88
-23 112 -26 l44 -4 -62 63 c-74 78 -106 145 -122 257 l-13 84 -51 -23z"/>
<path d="M974 631 c-21 -16 -74 -64 -117 -108 l-78 -79 14 -39 c8 -22 17 -58
21 -80 16 -87 53 -147 121 -198 35 -26 72 -50 81 -54 30 -11 8 54 -43 129 -69
101 -64 134 41 287 28 41 66 89 85 107 l33 33 -37 15 c-53 23 -77 20 -121 -13z"/>
<path d="M1670 362 c0 -89 23 -141 92 -208 35 -34 73 -66 85 -73 24 -12 107
-14 138 -2 18 7 18 9 -6 32 -14 13 -39 31 -56 40 -42 23 -83 108 -83 174 l0
50 -77 18 c-43 9 -81 17 -85 17 -5 0 -8 -22 -8 -48z"/>
<path d="M1927 323 c21 -56 74 -120 146 -178 44 -36 84 -65 88 -65 14 0 39 44
39 67 0 16 -11 28 -40 43 -22 11 -65 45 -96 76 -49 49 -93 74 -131 74 -8 0
-10 -7 -6 -17z"/>
</g>
</svg>
